{
	"asset":{
		"generator":"Khronos glTF Blender I/O v3.6.27",
		"version":"2.0"
	},
	"scene":0,
	"scenes":[
		{
			"name":"Scene",
			"nodes":[
				0,
				1,
				2,
				3,
				4
			]
		}
	],
	"nodes":[
		{
			"mesh":0,
			"name":"Cube",
			"rotation":[
				0.7071068286895752,
				0,
				0,
				0.7071068286895752
			],
			"scale":[
				0.3799999952316284,
				0.03500000014901161,
				0.3799999952316284
			],
			"translation":[
				-2.2305874153971672e-05,
				0.0009148716926574707,
				0.0009439898421987891
			]
		},
		{
			"mesh":1,
			"name":"Cylinder",
			"rotation":[
				0.7071068286895752,
				0,
				0,
				0.7071068286895752
			],
			"scale":[
				1,
				0.004999999888241291,
				1
			],
			"translation":[
				-2.2305874153971672e-05,
				0.0009148716926574707,
				0.030943991616368294
			]
		},
		{
			"mesh":2,
			"name":"Cylinder.005",
			"rotation":[
				0.7071068286895752,
				0,
				0,
				0.7071068286895752
			],
			"scale":[
				1,
				0.004999999888241291,
				1
			],
			"translation":[
				0.20822468400001526,
				-0.3062301278114319,
				-0.02405603788793087
			]
		},
		{
			"mesh":3,
			"name":"Cylinder.006",
			"rotation":[
				0.7071068286895752,
				0,
				0,
				0.7071068286895752
			],
			"scale":[
				1,
				0.004999999888241291,
				1
			],
			"translation":[
				0.14956669509410858,
				-0.3062477111816406,
				-0.02405603788793087
			]
		},
		{
			"mesh":4,
			"name":"Text.003",
			"rotation":[
				0.7071068286895752,
				0,
				0,
				0.7071068286895752
			],
			"translation":[
				-2.2305874153971672e-05,
				-0.274085134267807,
				0.03594397008419037
			]
		}
	],
	"materials":[
		{
			"doubleSided":true,
			"name":"Material",
			"pbrMetallicRoughness":{
				"baseColorFactor":[
					0.800000011920929,
					0.800000011920929,
					0.800000011920929,
					1
				],
				"metallicFactor":0,
				"roughnessFactor":0.5
			}
		},
		{
			"doubleSided":true,
			"name":"Material.001",
			"pbrMetallicRoughness":{
				"baseColorFactor":[
					0.19599999487400055,
					0.0764399915933609,
					0,
					1
				],
				"metallicFactor":0,
				"roughnessFactor":0.5
			}
		},
		{
			"doubleSided":true,
			"name":"Material.003",
			"pbrMetallicRoughness":{
				"baseColorFactor":[
					0.19598375260829926,
					0.07609227299690247,
					0,
					1
				],
				"metallicFactor":0,
				"roughnessFactor":0.5
			}
		},
		{
			"doubleSided":true,
			"name":"Material.002",
			"pbrMetallicRoughness":{
				"baseColorFactor":[
					0.08008453994989395,
					0.09811608493328094,
					0.1282351166009903,
					1
				],
				"metallicFactor":0,
				"roughnessFactor":0.5
			}
		}
	],
	"meshes":[
		{
			"name":"Cube",
			"primitives":[
				{
					"attributes":{
						"POSITION":0,
						"NORMAL":1,
						"TEXCOORD_0":2
					},
					"indices":3,
					"material":0
				},
				{
					"attributes":{
						"POSITION":4,
						"NORMAL":5,
						"TEXCOORD_0":6
					},
					"indices":7,
					"material":0
				},
				{
					"attributes":{
						"POSITION":8,
						"NORMAL":9,
						"TEXCOORD_0":10
					},
					"indices":11,
					"material":0
				},
				{
					"attributes":{
						"POSITION":12,
						"NORMAL":13,
						"TEXCOORD_0":14
					},
					"indices":15,
					"material":0
				}
			]
		},
		{
			"name":"Cylinder.013",
			"primitives":[
				{
					"attributes":{
						"POSITION":16,
						"NORMAL":17,
						"TEXCOORD_0":18
					},
					"indices":19,
					"material":0
				}
			]
		},
		{
			"name":"Cylinder.015",
			"primitives":[
				{
					"attributes":{
						"POSITION":20,
						"NORMAL":21,
						"TEXCOORD_0":22
					},
					"indices":19,
					"material":1
				}
			]
		},
		{
			"name":"Cylinder.016",
			"primitives":[
				{
					"attributes":{
						"POSITION":23,
						"NORMAL":24,
						"TEXCOORD_0":25
					},
					"indices":19,
					"material":2
				}
			]
		},
		{
			"name":"Text.001",
			"primitives":[
				{
					"attributes":{
						"POSITION":26,
						"NORMAL":27,
						"TEXCOORD_0":28
					},
					"indices":29,
					"material":3
				}
			]
		}
	],
	"accessors":[
		{
			"bufferView":0,
			"componentType":5126,
			"count":34686,
			"max":[
				1,
				1,
				1
			],
			"min":[
				-1,
				-1,
				-1
			],
			"type":"VEC3"
		},
		{
			"bufferView":1,
			"componentType":5126,
			"count":34686,
			"type":"VEC3"
		},
		{
			"bufferView":2,
			"componentType":5126,
			"count":34686,
			"type":"VEC2"
		},
		{
			"bufferView":3,
			"componentType":5123,
			"count":78180,
			"type":"SCALAR"
		},
		{
			"bufferView":4,
			"componentType":5126,
			"count":4004,
			"max":[
				-0.6578946709632874,
				1,
				-0.6578946709632874
			],
			"min":[
				-0.8684210181236267,
				-1,
				-0.8684210181236267
			],
			"type":"VEC3"
		},
		{
			"bufferView":5,
			"componentType":5126,
			"count":4004,
			"type":"VEC3"
		},
		{
			"bufferView":6,
			"componentType":5126,
			"count":4004,
			"type":"VEC2"
		},
		{
			"bufferView":7,
			"componentType":5123,
			"count":6012,
			"type":"SCALAR"
		},
		{
			"bufferView":8,
			"componentType":5126,
			"count":2503,
			"max":[
				0.8901241421699524,
				-0.8513553142547607,
				0.9003819823265076
			],
			"min":[
				0.7980189323425293,
				-1,
				0.7161714434623718
			],
			"type":"VEC3"
		},
		{
			"bufferView":9,
			"componentType":5126,
			"count":2503,
			"type":"VEC3"
		},
		{
			"bufferView":10,
			"componentType":5126,
			"count":2503,
			"type":"VEC2"
		},
		{
			"bufferView":11,
			"componentType":5123,
			"count":4503,
			"type":"SCALAR"
		},
		{
			"bufferView":12,
			"componentType":5126,
			"count":5001,
			"max":[
				0.3421052396297455,
				1,
				0.3421052396297455
			],
			"min":[
				-0.3421052396297455,
				0.9090909361839294,
				-0.3421052396297455
			],
			"type":"VEC3"
		},
		{
			"bufferView":13,
			"componentType":5126,
			"count":5001,
			"type":"VEC3"
		},
		{
			"bufferView":14,
			"componentType":5126,
			"count":5001,
			"type":"VEC2"
		},
		{
			"bufferView":15,
			"componentType":5123,
			"count":8997,
			"type":"SCALAR"
		},
		{
			"bufferView":16,
			"componentType":5126,
			"count":6000,
			"max":[
				0.11999999731779099,
				1,
				0.11999999731779099
			],
			"min":[
				-0.11999999731779099,
				-1,
				-0.11999999731779099
			],
			"type":"VEC3"
		},
		{
			"bufferView":17,
			"componentType":5126,
			"count":6000,
			"type":"VEC3"
		},
		{
			"bufferView":18,
			"componentType":5126,
			"count":6000,
			"type":"VEC2"
		},
		{
			"bufferView":19,
			"componentType":5123,
			"count":11988,
			"type":"SCALAR"
		},
		{
			"bufferView":20,
			"componentType":5126,
			"count":6000,
			"max":[
				0.009999999776482582,
				1,
				0.009999999776482582
			],
			"min":[
				-0.009999999776482582,
				-1,
				-0.009999999776482582
			],
			"type":"VEC3"
		},
		{
			"bufferView":21,
			"componentType":5126,
			"count":6000,
			"type":"VEC3"
		},
		{
			"bufferView":22,
			"componentType":5126,
			"count":6000,
			"type":"VEC2"
		},
		{
			"bufferView":23,
			"componentType":5126,
			"count":6000,
			"max":[
				0.009999999776482582,
				1,
				0.009999999776482582
			],
			"min":[
				-0.009999999776482582,
				-1,
				-0.009999999776482582
			],
			"type":"VEC3"
		},
		{
			"bufferView":24,
			"componentType":5126,
			"count":6000,
			"type":"VEC3"
		},
		{
			"bufferView":25,
			"componentType":5126,
			"count":6000,
			"type":"VEC2"
		},
		{
			"bufferView":26,
			"componentType":5126,
			"count":6041,
			"max":[
				0.237602099776268,
				0.0005000000237487257,
				0.024066513404250145
			],
			"min":[
				-0.237602099776268,
				-0.0005000000237487257,
				-0.06143524497747421
			],
			"type":"VEC3"
		},
		{
			"bufferView":27,
			"componentType":5126,
			"count":6041,
			"type":"VEC3"
		},
		{
			"bufferView":28,
			"componentType":5126,
			"count":6041,
			"type":"VEC2"
		},
		{
			"bufferView":29,
			"componentType":5123,
			"count":17964,
			"type":"SCALAR"
		}
	],
	"bufferViews":[
		{
			"buffer":0,
			"byteLength":416232,
			"byteOffset":0,
			"target":34962
		},
		{
			"buffer":0,
			"byteLength":416232,
			"byteOffset":416232,
			"target":34962
		},
		{
			"buffer":0,
			"byteLength":277488,
			"byteOffset":832464,
			"target":34962
		},
		{
			"buffer":0,
			"byteLength":156360,
			"byteOffset":1109952,
			"target":34963
		},
		{
			"buffer":0,
			"byteLength":48048,
			"byteOffset":1266312,
			"target":34962
		},
		{
			"buffer":0,
			"byteLength":48048,
			"byteOffset":1314360,
			"target":34962
		},
		{
			"buffer":0,
			"byteLength":32032,
			"byteOffset":1362408,
			"target":34962
		},
		{
			"buffer":0,
			"byteLength":12024,
			"byteOffset":1394440,
			"target":34963
		},
		{
			"buffer":0,
			"byteLength":30036,
			"byteOffset":1406464,
			"target":34962
		},
		{
			"buffer":0,
			"byteLength":30036,
			"byteOffset":1436500,
			"target":34962
		},
		{
			"buffer":0,
			"byteLength":20024,
			"byteOffset":1466536,
			"target":34962
		},
		{
			"buffer":0,
			"byteLength":9006,
			"byteOffset":1486560,
			"target":34963
		},
		{
			"buffer":0,
			"byteLength":60012,
			"byteOffset":1495568,
			"target":34962
		},
		{
			"buffer":0,
			"byteLength":60012,
			"byteOffset":1555580,
			"target":34962
		},
		{
			"buffer":0,
			"byteLength":40008,
			"byteOffset":1615592,
			"target":34962
		},
		{
			"buffer":0,
			"byteLength":17994,
			"byteOffset":1655600,
			"target":34963
		},
		{
			"buffer":0,
			"byteLength":72000,
			"byteOffset":1673596,
			"target":34962
		},
		{
			"buffer":0,
			"byteLength":72000,
			"byteOffset":1745596,
			"target":34962
		},
		{
			"buffer":0,
			"byteLength":48000,
			"byteOffset":1817596,
			"target":34962
		},
		{
			"buffer":0,
			"byteLength":23976,
			"byteOffset":1865596,
			"target":34963
		},
		{
			"buffer":0,
			"byteLength":72000,
			"byteOffset":1889572,
			"target":34962
		},
		{
			"buffer":0,
			"byteLength":72000,
			"byteOffset":1961572,
			"target":34962
		},
		{
			"buffer":0,
			"byteLength":48000,
			"byteOffset":2033572,
			"target":34962
		},
		{
			"buffer":0,
			"byteLength":72000,
			"byteOffset":2081572,
			"target":34962
		},
		{
			"buffer":0,
			"byteLength":72000,
			"byteOffset":2153572,
			"target":34962
		},
		{
			"buffer":0,
			"byteLength":48000,
			"byteOffset":2225572,
			"target":34962
		},
		{
			"buffer":0,
			"byteLength":72492,
			"byteOffset":2273572,
			"target":34962
		},
		{
			"buffer":0,
			"byteLength":72492,
			"byteOffset":2346064,
			"target":34962
		},
		{
			"buffer":0,
			"byteLength":48328,
			"byteOffset":2418556,
			"target":34962
		},
		{
			"buffer":0,
			"byteLength":35928,
			"byteOffset":2466884,
			"target":34963
		}
	],
	"buffers":[
		{
			"byteLength":2502812,
			"uri":"data:application/octet-stream;base64,"
		}
	]
}
